<?xml version="1.0" encoding="UTF-8"?>
<svg version="1.1" viewBox="0 0 2000 2000" width="500" height="500" xmlns="http://www.w3.org/2000/svg">
<path transform="translate(730,702)" d="m0 0h127l50 1 48 3 25 3 18 4 12 5 13 7 11 9 6 5 9 11 9 14 8 19 5 19 4 29 1 16v39l-2 26-4 22-5 15-7 12-8 8-11 7-12 5-15 4-11 2h-6l1 2 20 6 16 7 12 8 9 8 10 14 8 16 3 14 1 15 1 34v188l-2 1h-141l-1-1-1-208-1-22-2-15-3-10-5-6-10-4-17-3-8-1v269l-2 1h-153l-1-1v-596zm155 102v133h15l14-3 8-4 4-5 3-8 2-10 1-14v-50l-1-12-5-13-7-7-10-4-21-3z" fill="#FBBA0C"/>
<path transform="translate(1180,702)" d="m0 0h221l3 1 4 25 13 88 21 141 15 101 29 195 6 39v7l-2 1h-155l-2-7-5-60-3-40-55-1v9l-6 70-2 27-1 1-113 1h-42l-6-1 7-52 11-84 13-98 14-106 34-255zm116 143-4 28-13 104-6 54-5 55h53l-1-16-9-87-7-78-5-57-1-3z" fill="#E44535"/>
<path transform="translate(471,690)" d="m0 0h36l20 2 24 4 21 6 21 9 17 10 13 10 10 9 8 8 10 14 8 16 5 15 5 24 3 26 2 28v91l-1 1h-150l-4-1-1-30v-87l-1-25-3-16-4-6-5-4-5-2h-16l-10 5-4 5-3 8-2 11-1 12-1 75 1 263 2 17 4 13 2 4 4 2 9 3h12l8-3 6-5 4-10 2-16 1-17 1-99h155v63l-3 44-4 28-6 22-6 14-7 11-13 16-14 13-18 13-23 12-19 7-21 5-20 3-15 1h-26l-27-2-23-4-21-6-19-8-15-8-14-10-13-12-10-12-9-15-6-15-6-22-4-23-3-35-1-18-1-53v-132l1-68 2-37 3-24 5-17 7-16 8-14 9-12 9-10 8-8 15-11 17-10 22-9 22-6 25-4z" fill="#2FD1BD"/>
<path transform="translate(1519,702)" d="m0 0h149l6 2v595l-5 1-151-1v-596z" fill="#4176B4"/>
</svg>
